<?xml version="1.0" standalone="no"?>
<!DOCTYPE svg PUBLIC "-//W3C//DTD SVG 20010904//EN"
 "http://www.w3.org/TR/2001/REC-SVG-20010904/DTD/svg10.dtd">
<svg version="1.0" xmlns="http://www.w3.org/2000/svg"
 width="720.000000pt" height="1080.000000pt" viewBox="0 0 720.000000 1080.000000"
 preserveAspectRatio="xMidYMid meet">

<g transform="translate(0.000000,1080.000000) scale(0.100000,-0.100000)"
fill="#000000" stroke="none">
<path d="M3590 9350 c-8 -5 -27 -10 -42 -10 -15 0 -29 -4 -32 -9 -4 -5 -25
-12 -49 -16 -23 -4 -58 -11 -77 -15 -19 -5 -47 -12 -62 -15 -15 -3 -33 -11
-40 -18 -7 -6 -26 -19 -42 -27 -16 -8 -31 -22 -33 -31 -3 -9 -28 -34 -57 -55
-29 -21 -61 -52 -71 -68 -37 -63 -75 -147 -75 -166 0 -12 -7 -37 -16 -58 -41
-94 -30 -276 21 -347 12 -16 27 -50 34 -75 7 -25 19 -52 26 -60 7 -8 16 -27
20 -41 6 -23 3 -27 -24 -32 -42 -9 -60 -66 -42 -140 7 -28 16 -96 21 -150 7
-82 12 -104 35 -137 23 -33 33 -39 67 -42 38 -3 40 -5 58 -53 10 -27 25 -68
33 -90 10 -27 17 -102 22 -230 l7 -190 -49 -46 c-43 -40 -58 -48 -114 -58 -36
-6 -75 -11 -86 -11 -46 0 -277 -112 -531 -257 -62 -36 -147 -80 -190 -98 -139
-59 -148 -63 -173 -89 -14 -14 -38 -51 -54 -83 -16 -32 -48 -78 -71 -103 -23
-25 -53 -71 -67 -102 -14 -31 -37 -74 -51 -95 -14 -20 -26 -46 -26 -57 0 -11
-15 -63 -34 -115 -18 -53 -48 -148 -66 -211 -18 -63 -37 -127 -42 -142 -5 -15
-7 -31 -4 -37 4 -6 0 -21 -8 -33 -7 -13 -25 -72 -40 -133 -36 -158 -91 -380
-111 -453 l-17 -63 23 -26 c25 -26 27 -44 27 -266 1 -42 8 -101 16 -130 15
-52 196 -363 306 -527 90 -134 165 -222 329 -388 83 -85 151 -162 151 -172 0
-10 -15 -166 -34 -346 -69 -657 -77 -822 -45 -949 9 -34 7 -58 -10 -129 -12
-48 -21 -112 -21 -141 0 -51 2 -56 51 -102 l51 -49 2 -109 c14 -669 39 -1373
51 -1445 7 -47 21 -136 31 -197 l17 -113 604 0 603 0 0 93 c0 51 4 97 10 103
5 5 6 22 1 39 -4 19 -3 46 5 71 7 23 10 60 7 82 -4 27 0 47 12 65 13 21 15 38
10 92 -6 48 -4 69 6 81 9 11 13 39 11 82 -1 38 3 71 10 79 7 9 11 48 10 103
-1 49 2 91 7 94 14 9 30 -17 37 -60 3 -21 10 -43 14 -49 8 -9 23 -144 50 -435
6 -58 17 -158 25 -222 8 -64 15 -132 15 -151 0 -73 -52 -67 601 -67 573 0 589
1 589 19 0 11 11 61 25 113 46 176 92 463 115 715 7 73 10 307 9 580 -3 573
-4 531 16 553 15 17 17 69 20 542 3 375 0 578 -10 718 -8 107 -17 259 -21 336
l-6 142 63 42 c35 24 120 84 189 135 69 50 163 118 209 151 119 84 247 207
277 266 35 69 46 174 38 371 l-7 169 29 30 c16 16 47 47 68 68 l39 38 -23 53
c-12 30 -28 63 -35 74 -29 44 -255 616 -305 770 -36 112 -147 389 -187 470
-60 120 -168 287 -221 341 -40 41 -85 74 -148 107 -50 26 -98 47 -105 47 -8 0
-34 11 -59 25 -64 35 -272 137 -355 172 -70 31 -184 67 -305 99 -96 25 -134
48 -172 101 l-33 48 -3 203 c-3 187 -1 209 19 270 27 84 32 90 68 84 22 -3 36
2 55 21 24 24 26 31 25 129 0 70 5 117 15 147 9 24 16 64 16 88 0 37 -5 50
-29 72 l-28 27 19 49 c11 27 36 72 56 100 68 96 93 274 52 385 -11 30 -20 62
-20 70 0 8 -14 35 -31 60 -17 25 -33 57 -36 72 -3 15 -26 49 -52 75 -39 41
-60 53 -145 82 -89 30 -106 33 -170 27 -41 -4 -84 -15 -103 -26 -38 -22 -59
-18 -69 13 -10 35 -75 96 -114 107 -45 13 -131 13 -150 0z m-1156 -4297 c-20
-562 -18 -536 -36 -539 -10 -1 -32 17 -54 44 -21 26 -57 68 -80 93 -44 48 -84
117 -84 144 0 8 10 19 23 24 36 14 49 33 117 168 22 45 48 108 56 140 16 61
38 103 54 103 7 0 8 -62 4 -177z m2736 -40 c13 -53 77 -216 108 -276 30 -56
42 -67 73 -67 29 0 59 -30 59 -60 0 -25 -261 -260 -289 -260 -6 0 -14 12 -17
26 -6 24 1 241 11 344 3 25 6 79 9 120 6 121 18 220 26 220 4 0 13 -21 20 -47z
m-1360 -3938 c0 -8 -4 -15 -10 -15 -5 0 -10 7 -10 15 0 8 5 15 10 15 6 0 10
-7 10 -15z"/>
</g>
</svg>
